<?xml version="1.0" encoding="UTF-8" standalone="no"?>
<svg viewBox="0 0 210 148" version="1.1" xmlns="http://www.w3.org/2000/svg" xmlns:xlink="http://www.w3.org/1999/xlink" xmlns:sketch="http://www.bohemiancoding.com/sketch/ns">
    <!-- Generator: Sketch 3.3 (11970) - http://www.bohemiancoding.com/sketch -->
    <title>elephant</title>
    <desc>Created with Sketch.</desc>
    <defs>
        <linearGradient x1="18.6286263%" y1="-393.12681%" x2="140.220259%" y2="147.165866%" id="linearGradient-1">
            <stop stop-color="#000000" offset="0%"></stop>
            <stop stop-color="#006666" offset="100%"></stop>
        </linearGradient>
        <linearGradient x1="18.6286263%" y1="-393.12681%" x2="100%" y2="264.628528%" id="linearGradient-2">
            <stop stop-color="#FFFFFF" offset="0%"></stop>
            <stop stop-color="#006666" offset="100%"></stop>
        </linearGradient>
        <linearGradient x1="41.0274088%" y1="26.1161821%" x2="-137.242337%" y2="96.3469183%" id="linearGradient-3">
            <stop stop-color="#006666" offset="0%"></stop>
            <stop stop-color="#003535" offset="48.1849677%"></stop>
            <stop stop-color="#000000" offset="100%"></stop>
        </linearGradient>
        <linearGradient x1="7.83910185%" y1="50%" x2="277.52347%" y2="133.774582%" id="linearGradient-4">
            <stop stop-color="#006666" offset="0%"></stop>
            <stop stop-color="#FFFFFF" offset="100%"></stop>
        </linearGradient>
        <linearGradient x1="183.085236%" y1="-114.641173%" x2="-8.701037%" y2="0%" id="linearGradient-5">
            <stop stop-color="#FFFFFF" offset="0%"></stop>
            <stop stop-color="#006666" offset="100%"></stop>
        </linearGradient>
        <linearGradient x1="-83.2192856%" y1="-84.9482431%" x2="108.616638%" y2="75.0267657%" id="linearGradient-6">
            <stop stop-color="#FFFFFF" offset="0%"></stop>
            <stop stop-color="#006666" offset="100%"></stop>
        </linearGradient>
        <linearGradient x1="-228.486115%" y1="79.0976021%" x2="71.157109%" y2="25.7001485%" id="linearGradient-7">
            <stop stop-color="#FFFFFF" offset="0%"></stop>
            <stop stop-color="#006666" offset="100%"></stop>
        </linearGradient>
    </defs>
      <g id="elephant" sketch:type="MSLayerGroup" transform="translate(-24.000000, -31.000000)" stroke="#008584" stroke-width="0.504310345">
          <g id="dark" transform="translate(23.702586, 37.292876)" sketch:type="MSShapeGroup">
              <polygon class="elephant" id="elephant-part-1" fill="url(#linearGradient-1)" transform="translate(65.490871, 99.558426) rotate(307.000000) translate(-65.490871, -99.558426) " points="72.2030676 69.84879 103.682442 129.268061 27.2993008 118.075335 "></polygon>
              <polygon class="elephant" id="elephant-part-2" fill="url(#linearGradient-1)" transform="translate(51.767721, 49.212249) rotate(140.000000) translate(-51.767721, -49.212249) " points="52.8027084 22.9948346 96.816949 75.4296629 6.71849386 70.9305349 "></polygon>
              <polygon class="elephant" id="elephant-part-3" fill="url(#linearGradient-2)" transform="translate(197.174530, 23.585284) rotate(-6.000000) translate(-197.174530, -23.585284) " points="192.616018 14.8600671 209.031555 32.310501 185.317505 21.9941519 "></polygon>
          </g>
          <g id="medium" sketch:type="MSShapeGroup">
              <polygon class="elephant" id="elephant-part-4" fill="url(#linearGradient-3)" transform="translate(61.674864, 128.360782) rotate(-313.000000) translate(-61.674864, -128.360782) " points="60.0323534 90.298596 111.175155 148.733056 93.329243 166.422968 12.1745738 133.256063 "></polygon>
              <polygon class="elephant" id="elephant-part-5" fill="url(#linearGradient-3)" transform="translate(191.151938, 69.458041) rotate(-58.000000) translate(-191.151938, -69.458041) " points="181.351559 58.0172475 211.434801 72.8939038 218.241495 80.8988341 164.062382 73.7134959 "></polygon>
              <polygon class="elephant" id="elephant-part-6" fill="url(#linearGradient-3)" transform="translate(97.173806, 88.943450) rotate(226.000000) translate(-97.173806, -88.943450) " points="123.471373 47.3639006 121.26543 130.522998 70.8762393 109.488392 "></polygon>
              <polygon class="elephant" id="elephant-part-7" fill="url(#linearGradient-4)" transform="translate(135.155733, 48.056336) rotate(47.000000) translate(-135.155733, -48.056336) " points="137.68633 24.1039005 178.140706 72.0087718 92.1707608 70.7822114 "></polygon>
          </g>
          <g id="light" transform="translate(47.405172, 29.733509)" sketch:type="MSShapeGroup">
              <polygon class="elephant" id="elephant-part-8" fill="url(#linearGradient-5)" transform="translate(70.541823, 88.767561) rotate(-313.000000) translate(-70.541823, -88.767561) " points="71.3166513 50.6637467 132.811496 106.580343 114.033654 125.664132 8.27214904 126.871375 "></polygon>
              <polygon class="elephant" id="elephant-part-9" fill="url(#linearGradient-6)" transform="translate(112.062256, 40.906914) rotate(-130.000000) translate(-112.062256, -40.906914) " points="101.075415 15.3182637 143.837998 60.8839712 127.080629 66.4955645 80.2865142 41.5860396 "></polygon>
              <path d="M45.0189259,27.2083343 C45.0189259,27.2083343 56.6228686,24.4077324 58.2148269,26.2488444 C71.4611086,41.5682704 96.6406925,67.9684521 96.6406925,67.9684521 C96.6406925,67.9684521 98.4633433,73.4804132 96.8414931,73.4822854 C70.0726698,73.5131858 11.7650809,70.4443572 11.7650809,70.4443572 L45.0189259,27.2083343 Z" class="elephant" id="elephant-part-10" fill="url(#linearGradient-7)" transform="translate(54.639391, 49.552253) rotate(-134.000000) translate(-54.639391, -49.552253) "></path>
          </g>
      </g>
</svg>