<svg width="594" height="102" viewBox="0 0 594 102" xmlns="http://www.w3.org/2000/svg"><title>Clouds</title><desc>Created with Sketch.</desc><g fill="none" fill-rule="evenodd"><g fill="#0B486B" opacity=".194"><path d="M218.584 36.033C190.74 32.223 174 27.333 174 22c0-12.15 86.857-22 194-22s194 9.85 194 22c0 7.162-30.18 13.525-76.906 17.542C547.738 41.438 594 48.088 594 56c0 8.607-54.75 15.72-125.78 16.845C477.74 75.352 483 78.108 483 81c0 11.598-84.618 21-189 21s-189-9.402-189-21c0-.35.078-.7.23-1.048C42.394 75.912 0 68.267 0 59.5 0 46.52 92.9 36 207.5 36c3.718 0 7.414.01 11.084.033z"/></g></g></svg>