<svg width="368" height="72" viewBox="0 0 368 72" xmlns="http://www.w3.org/2000/svg"><title>Clouds</title><desc>Created with Sketch.</desc><g fill="none" fill-rule="evenodd"><g fill="#0B486B" opacity=".194"><path d="M122.294 51.122C98.678 49.236 83.18 46.064 83.18 42.47c0-.417.207-.83.613-1.233C35.235 39.514 0 34.373 0 28.297c0-3.892 14.47-7.4 37.645-9.874-5.6-1.514-8.686-3.173-8.686-4.912C28.96 6.366 81.094.573 145.41.573c64.313 0 116.45 5.793 116.45 12.94 0 3.552-12.89 6.77-33.756 9.11 7.034 1.726 10.958 3.65 10.958 5.676 0 2.098-4.2 4.084-11.703 5.857 21.35 1.915 35.116 4.927 35.116 8.314 0 .078-.008.157-.023.235 59.59 1.23 104.766 7.14 104.766 14.244 0 7.995-57.24 14.478-127.85 14.478-70.61 0-127.85-6.483-127.85-14.48 0-2.072 3.847-4.043 10.774-5.826z"/></g></g></svg>