<svg width="636" height="116" viewBox="0 0 636 116" xmlns="http://www.w3.org/2000/svg"><title>Clouds</title><desc>Created with Sketch.</desc><g fill="none" fill-rule="evenodd"><g fill="#0B486B" opacity=".194"><path d="M425.964 68.526c.024-.127.036-.254.036-.382 0-1.748-2.258-3.434-6.452-5.022 2.968.015 5.953.022 8.952.022 114.6 0 207.5-10.52 207.5-23.5s-92.9-23.5-207.5-23.5c-2.963 0-5.91.007-8.844.02C399.536 6.97 324.942.145 236 .145c-104.382 0-189 9.402-189 21 0 2.822 5.01 5.515 14.1 7.973C23.485 33.13 0 38.827 0 45.144c0 9.86 57.187 18.203 135.996 21-.658.656-.996 1.323-.996 2 0 5.834 25.155 10.982 63.483 14.044C187.24 85.08 181 88.28 181 91.644c0 12.98 92.9 23.5 207.5 23.5s207.5-10.52 207.5-23.5c0-11.53-73.32-21.12-170.036-23.118z"/></g></g></svg>