<?xml version="1.0" encoding="UTF-8" standalone="no"?>
<?xml-stylesheet type="text/css" href="../css/shroom.css" ?>
<svg width="315px" height="311px" viewBox="0 0 315 311" version="1.1" xmlns="http://www.w3.org/2000/svg" xmlns:xlink="http://www.w3.org/1999/xlink" xmlns:sketch="http://www.bohemiancoding.com/sketch/ns">
    <!-- Generator: Sketch 3.2.2 (9983) - http://www.bohemiancoding.com/sketch -->
    <title>Mushrooms</title>
    <desc>Created with Sketch.</desc>
    <defs></defs>
    <g id="Page-1" stroke="none" stroke-width="1" fill="none" fill-rule="evenodd" sketch:type="MSPage">
        <g id="Desktop-HD" sketch:type="MSArtboardGroup" transform="translate(-1077.000000, -682.000000)">
            <g id="mushrooms" sketch:type="MSLayerGroup" transform="translate(1077.000000, 682.000000)">
                <g id="Mushroom" sketch:type="MSShapeGroup">
                    <ellipse id="Bottom" fill="#0B486B" cx="138" cy="134" rx="135" ry="34"></ellipse>
                    <path d="M93.9351076,255.913339 C90.1460256,283.685377 110.065833,293 140.011673,293 C173.746677,293 185.175864,280.102426 180.541532,251.969134 C178.332485,238.558838 162.301658,213.262911 162.301658,197.152674 C162.301658,147.244973 189.827143,109 140.011674,109 C90.1962039,109 119.867148,131.184494 119.867148,181.092194 C119.867148,200.998611 96.4492349,237.486068 93.9351076,255.913339 Z" id="Stalk" fill="#0D5B87"></path>
                    <path d="M272.811513,138 C274.249327,131.212292 275,124.221193 275,117.080803 C275,52.4188609 213.439153,0 137.5,0 C61.5608469,0 0,52.4188609 0,117.080803 C0,124.221193 0.750673459,131.212292 2.18848713,138 C34.9230073,125.190892 83.4009636,117.080803 137.5,117.080803 C191.599036,117.080803 240.076993,125.190892 272.811513,138 Z" id="Top" fill="#3B8686"></path>
                    <g class="dots" transform="translate(24.000000, 16.000000)" fill="#A8DBA8">
                        <ellipse class="dot" cx="55.5" cy="40.5" rx="22.5" ry="16.5"></ellipse>
                        <ellipse class="dot" cx="113.5" cy="57.5" rx="22.5" ry="16.5"></ellipse>
                        <ellipse class="dot" cx="181.5" cy="73.5" rx="22.5" ry="16.5"></ellipse>
                        <ellipse class="dot" cx="119.5" cy="12" rx="16.5" ry="12"></ellipse>
                        <ellipse class="dot" cx="16.5" cy="78" rx="16.5" ry="12"></ellipse>
                        <ellipse class="dot" cx="181.5" cy="29" rx="16.5" ry="12"></ellipse>
                    </g>
                </g>
                <g id="Little-Mushroom" transform="translate(223.151377, 220.984779) scale(-1, 1) rotate(-5.000000) translate(-223.151377, -220.984779) translate(132.651377, 129.984779)" sketch:type="MSShapeGroup">
                    <path d="M177.758558,60.8331816 C174.189428,49.2070427 133.569733,51.2689109 87.0319296,65.4384931 C40.4941265,79.6080753 5.66113471,100.519639 9.23026489,112.145778 C12.7993951,123.771917 53.4190902,121.710049 99.9568933,107.540466 C146.494696,93.3708842 181.327688,72.4593205 177.758558,60.8331816 Z" id="Bottom" fill="#0B486B" transform="translate(93.494411, 86.489480) rotate(2.000000) translate(-93.494411, -86.489480) "></path>
                    <path d="M74.7296902,159.810816 C72.5278643,175.818968 84.1032135,181.188034 101.504665,181.188034 C121.107991,181.188034 125.552727,173.361873 122.859729,157.14549 C121.576057,149.415626 125.056465,136.696551 125.056465,127.410408 C125.056465,98.6429807 118.746377,68.5200274 89.7987337,68.5200274 C60.8510908,68.5200274 101.504665,87.9946083 101.504665,116.762035 C101.504665,128.236345 76.1906431,149.189105 74.7296902,159.810816 Z" id="Stalk" fill="#0D5B87"></path>
                    <path d="M180.577777,63.2535458 C180.177688,59.0721467 179.301254,54.895101 177.918548,50.7649803 C165.397039,13.363438 116.099114,-6.02670704 67.8085485,7.45587914 C19.5179834,20.9384653 -9.4785664,62.1882016 3.04294179,99.5897439 C4.4256479,103.719865 6.25680593,107.630354 8.48553847,111.301201 C26.8213605,98.080363 56.0785565,84.7823536 90.4807447,75.1773621 C124.882933,65.5723706 157.281097,61.6563818 180.577777,63.2535458 L180.577777,63.2535458 Z" id="Top" fill="#3B8686"></path>
                    <g class="dots" transform="translate(82.598615, 44.523840) rotate(-14.000000) translate(-82.598615, -44.523840) translate(16.558074, 15.699054)" fill="#A8DBA8">
                        <ellipse class="dot" cx="32.2509091" cy="19.3098218" rx="13.0746929" ry="9.51080774"></ellipse>
                        <ellipse class="dot" cx="118.543882" cy="47.5540387" rx="13.0746929" ry="9.51080774"></ellipse>
                        <ellipse class="dot" cx="69.4411466" cy="35.4493743" rx="13.0746929" ry="9.51080774"></ellipse>
                        <ellipse class="dot" cx="69.4411466" cy="6.91695108" rx="9.58810811" ry="6.91695108"></ellipse>
                        <ellipse class="dot" cx="9.58810811" cy="44.960182" rx="9.58810811" ry="6.91695108"></ellipse>
                        <ellipse class="dot" cx="105.469189" cy="16.7159651" rx="9.58810811" ry="6.91695108"></ellipse>
                    </g>
                </g>
            </g>
        </g>
    </g>
</svg>