<svg width="168" height="147" viewBox="0 0 168 147" xmlns="http://www.w3.org/2000/svg"><title>Toad</title><desc>Created with Sketch.</desc><g fill="none" fill-rule="evenodd"><g><g><g fill="#0B486B"><path d="M143.78 70.854l-.036.003-1.982 9.196-2.405-10.342.056-.503c-1.787-1.34-3.552-3.427-4.928-6.01-2.97-5.572-3.012-11.344-.097-12.893 2.916-1.55 7.685 1.71 10.653 7.28 1.42 2.665 2.17 5.376 2.25 7.648.67.35 1.394.733 2.174 1.148 14.832 7.89 14.938 12.156 14.938 12.156l-14.04-8.992 6.567 8.477 1.572 5.634-.433 3.44-2.31-6.403-8.668-9.832 3.832 11.897-1.372 3.285-2.445-7.393-3.326-7.793z"/></g><g transform="matrix(-.999 -.052 -.052 .999 169.791 2.391)"><ellipse id="Oval-28" fill="#0D5B87" cx="31.445" cy="8.307" rx="8.576" ry="8.307"/><path d="M54.53 89.083c12.44 10.623 19.252 22.537 39.026 22.537 37.603 0 69.91-29.413 69.91-59.09 0-13.054-16.77-29.045-30.674-38.668-13.906-9.622-18.175-9.71-39.236-9.71-37.604 0-63.184 14.75-63.184 44.427 0 14.07 12.942 30.924 24.158 40.503z" fill="#0B486B"/><path d="M32.827 55.06c2.04 2.456 12.605 8.226 16.45 7.248C66.013 58.048 82.12 49.94 82.12 34.784c0-7.613 14.614-18.515 9.44-24.16C84.065 2.446 65.412 2.815 52 2.815c-12.92 0-26.816 4.715-34.343 12.383C11.974 20.99 0 26.764 0 34.783 0 53.42 22.662 42.82 32.827 55.06z" fill="#0B486B"/><path d="M48.597 33.226c4.736 0 8.576-3.72 8.576-8.306 0-4.588-3.84-8.307-8.576-8.307-4.736 0-8.576 3.72-8.576 8.307s3.84 8.306 8.577 8.306z" fill="#0D5B87"/></g><g fill="#0B486B"><path d="M105.966 131.043c-2.49-1.475-5.126-3.41-7.697-5.723-2.83-2.546-5.214-5.218-7.01-7.75-.51-.052-1.13-.365-1.987-.964-5.363-3.752-3.7-15.385 7.428-31.288s24.496-25.754 29.858-22.002c5.363 3.753.462 24.423-17.677 37-4.162 2.887-7.165 5.505-9.385 7.78 2.76 1.527 5.74 3.654 8.637 6.26 4.136 3.722 7.317 7.71 9.107 11.14l4.77-4.07 3.63 1.12s-3.892-1.235-4.075 2.273c-.183 3.508 8.006 3.334 8.006 3.334s3.744 3.598 3.62 5.988c-.125 2.39-3.81-3.996-5.873-4.103-2.062-.11-5.955 1.142-5.955 1.142s4.335 1.282 5.94 5.483c1.607 4.202.842 8.355.842 8.355s-3.044-7.22-5.08-7.326c-2.036-.106-4.95-1.965-4.95-1.965s-5.986.26-3.266 5.372c2.72 5.113.543 5.013.543 5.013l-5.1-6.93s-3.598-4.47-4.324-8.142z"/></g><g fill="#0B486B"><path d="M26.115 131.022c-2.16.728-4.345-2.098-13.026-13.61C1.02 101.41-2.314 90.822 1.703 85.356c.17-.83.4-1.586.68-2.25 3.04-7.17 8.326 8.472 27.9 17.312-4.84-4.654-9.138-8.877-12.062-11.354-10.447-8.85-21.51-28.918-13.975-35.472 7.535-6.555 27.064 3.56 43.62 22.592C64.42 95.214 71.734 115.957 64.2 122.51c-.476.415-1.034.68-1.664.807-5.736 2.732-17.276 1.846-30.378-2.407.9 1.018 1.545 1.745 1.956 2.296 2.81.356 6.11 1.162 9.947 2.653 17.01 6.605 22.37 19.903 22.37 19.903s-29.834-22.887-31.65-16.323c-.418 1.513-.356.86-.043 2.25 1.043 4.637 6.65 8.315 6.65 8.315s-11.468-3.746-13.167-6.463c-.46-.736-1.23-1.62-2.105-2.52z"/></g></g></g></g></svg>