<?xml version="1.0" encoding="UTF-8" standalone="no"?>
<svg viewBox="0 0 130 75" version="1.1" xmlns="http://www.w3.org/2000/svg" xmlns:xlink="http://www.w3.org/1999/xlink" xmlns:sketch="http://www.bohemiancoding.com/sketch/ns">
    <!-- Generator: Sketch 3.3 (11970) - http://www.bohemiancoding.com/sketch -->
    <title>bottom-left-stuff</title>
    <desc>Created with Sketch.</desc>
    <defs>
        <linearGradient x1="77.3401706%" y1="142.608033%" x2="-26.4156161%" y2="82.4347615%" id="linearGradient-1">
            <stop stop-color="#006666" offset="0%"></stop>
            <stop stop-color="#000000" offset="100%"></stop>
        </linearGradient>
        <linearGradient x1="50%" y1="0%" x2="27.666483%" y2="367.455489%" id="linearGradient-2">
            <stop stop-color="#006666" offset="0%"></stop>
            <stop stop-color="#000000" offset="100%"></stop>
        </linearGradient>
        <linearGradient x1="50%" y1="0%" x2="-41.237902%" y2="193.907007%" id="linearGradient-3">
            <stop stop-color="#005252" offset="0%"></stop>
            <stop stop-color="#FFFFFF" offset="100%"></stop>
        </linearGradient>
    </defs>
    <g id="Page-1" stroke="none" stroke-width="1" fill="none" fill-rule="evenodd" sketch:type="MSPage">
        <g id="Desktop-HD" sketch:type="MSArtboardGroup" transform="translate(-28.000000, -517.000000)" stroke="#008584" stroke-width="0.5">
            <g id="section-2" sketch:type="MSLayerGroup" transform="translate(-32.000000, 296.000000)">
                <g id="bottom-left-stuff" transform="translate(129.910156, 259.203125) rotate(182.000000) translate(-129.910156, -259.203125) translate(60.410156, 219.703125)" sketch:type="MSShapeGroup">
                    <g id="dark" transform="translate(-0.000000, 0.000000)" fill="url(#linearGradient-1)">
                        <polygon id="Triangle-1-Copy" transform="translate(66.969804, 26.935532) rotate(51.000000) translate(-66.969804, -26.935532) " points="83.7281319 5.64011619 81.4594448 48.2309471 50.2114751 47.1138205 "></polygon>
                        <polygon id="Triangle-1-Copy-3" transform="translate(20.536244, 41.439180) rotate(308.000000) translate(-20.536244, -41.439180) " points="26.9114052 34.635243 43.7768275 47.5898963 -2.7043397 48.2431176 "></polygon>
                    </g>
                    <g id="medium" transform="translate(57.000000, 2.000000)" fill="url(#linearGradient-2)">
                        <polygon id="Triangle-1-Copy-4" transform="translate(47.074219, 29.037109) rotate(-22.000000) translate(-47.074219, -29.037109) " points="47.0742188 10.0371094 76.5742188 48.0371094 17.5742188 48.0371094 "></polygon>
                        <polygon id="Triangle-1-Copy-2" transform="translate(27.199994, 50.460893) rotate(60.000000) translate(-27.199994, -50.460893) " points="8.7086327 29.8873966 45.6913557 67.0159096 14.9655977 71.0343904 "></polygon>
                    </g>
                    <g id="light" transform="translate(11.000000, 4.000000)" fill="url(#linearGradient-3)">
                        <polygon id="Triangle-1-Copy-5" transform="translate(64.922492, 24.274695) rotate(91.000000) translate(-64.922492, -24.274695) " points="64.922492 8.84356142 88.8813565 39.7058276 40.9636275 39.7058276 "></polygon>
                        <polygon id="Triangle-1" points="29.5 23 59 61 0 61 "></polygon>
                    </g>
                </g>
            </g>
        </g>
    </g>
</svg>